HIERARCHY
ROOT Hips
{
	OFFSET 0.00 0.00 0.00
	CHANNELS 6 Xposition Yposition Zposition Xrotation Yrotation Zrotation
	JOINT Spine
	{
		OFFSET 0.00000 0.84964 1.27446
		CHANNELS 3 Xrotation Yrotation Zrotation
		JOINT Spine1
		{
			OFFSET 0.00000 0.29508 1.67346
			CHANNELS 3 Xrotation Yrotation Zrotation
			JOINT Spine2
			{
				OFFSET 0.00000 0.14810 1.69281
				CHANNELS 3 Xrotation Yrotation Zrotation
				JOINT Spine3
				{
					OFFSET 0.00000 0.00000 1.69928
					CHANNELS 3 Xrotation Yrotation Zrotation
					JOINT Neck
					{
						OFFSET 0.00000 -0.63723 4.46061
						CHANNELS 3 Xrotation Yrotation Zrotation
						JOINT Head
						{
							OFFSET 0.00000 -0.40573 2.30101
							CHANNELS 3 Xrotation Yrotation Zrotation
							End Site
							{
								OFFSET 0.00000 0.00000 2.75071
							}
						}
					}
					JOINT RightShoulder
					{
						OFFSET -0.72014 -1.20022 3.88874
						CHANNELS 3 Xrotation Yrotation Zrotation
						JOINT RightArm
						{
							OFFSET -3.57668 0.00000 0.00000
							CHANNELS 3 Xrotation Yrotation Zrotation
							JOINT RightForeArm
							{
								OFFSET -5.92485 0.00000 0.00000
								CHANNELS 3 Xrotation Yrotation Zrotation
								JOINT RightHand
								{
									OFFSET -6.63013 0.00000 0.00000
									CHANNELS 3 Xrotation Yrotation Zrotation
									JOINT RightHandEnd
									{
										OFFSET -1.65321 0.00000 0.00000
										CHANNELS 3 Xrotation Yrotation Zrotation
										End Site
										{
											OFFSET -1.65321 0.00000 0.00000
										}
									}
									JOINT RightHandThumb1
									{
										OFFSET -0.66129 -1.10214 -0.44086
										CHANNELS 3 Yrotation Xrotation Zrotation
										End Site
										{
											OFFSET -1.59688 -0.42788 0.00000
										}
									}
								}
							}
						}
					}
					JOINT LeftShoulder
					{
						OFFSET 0.72014 -1.20022 3.88874
						CHANNELS 3 Xrotation Yrotation Zrotation
						JOINT LeftArm
						{
							OFFSET 3.57668 0.00000 0.00000
							CHANNELS 3 Xrotation Yrotation Zrotation
							JOINT LeftForeArm
							{
								OFFSET 5.92485 0.00000 0.00000
								CHANNELS 3 Xrotation Yrotation Zrotation
								JOINT LeftHand
								{
									OFFSET 6.63013 0.00000 0.00000
									CHANNELS 3 Xrotation Yrotation Zrotation
									JOINT LeftHandEnd
									{
										OFFSET 1.65321 0.00000 0.00000
										CHANNELS 3 Xrotation Yrotation Zrotation
										End Site
										{
											OFFSET 1.65321 0.00000 0.00000
										}
									}
									JOINT LeftHandThumb1
									{
										OFFSET 0.66129 -1.10214 -0.44086
										CHANNELS 3 Yrotation Xrotation Zrotation
										End Site
										{
											OFFSET 1.59688 -0.42788 0.00000
										}
									}
								}
							}
						}
					}
				}
			}
		}
	}
	JOINT RightUpLeg
	{
		OFFSET -2.13640 0.00000 -0.62412
		CHANNELS 3 Xrotation Yrotation Zrotation
		JOINT RightLeg
		{
			OFFSET 0.00000 0.00000 -11.49360
			CHANNELS 3 Xrotation Yrotation Zrotation
			JOINT RightFoot
			{
				OFFSET 0.00000 0.00000 -8.79036
				CHANNELS 3 Xrotation Yrotation Zrotation
				JOINT RightToeBase
				{
					OFFSET 0.00000 -3.94625 -1.43632
					CHANNELS 3 Xrotation Yrotation Zrotation
					End Site
					{
						OFFSET 0.00000 -1.72833 -0.00000
					}
				}
			}
		}
	}
	JOINT LeftUpLeg
	{
		OFFSET 2.13640 0.00000 -0.62412
		CHANNELS 3 Xrotation Yrotation Zrotation
		JOINT LeftLeg
		{
			OFFSET 0.00000 0.00000 -11.49360
			CHANNELS 3 Xrotation Yrotation Zrotation
			JOINT LeftFoot
			{
				OFFSET 0.00000 0.00000 -8.79036
				CHANNELS 3 Xrotation Yrotation Zrotation
				JOINT LeftToeBase
				{
					OFFSET 0.00000 -3.94625 -1.43632
					CHANNELS 3 Xrotation Yrotation Zrotation
					End Site
					{
						OFFSET 0.00000 -1.72833 -0.00000
					}
				}
			}
		}
	}
}
MOTION
Frames: 10
Frame Time: 0.00333
 0.4450 -1.7716 23.6189 -0.2347 -0.8955 176.3861 -4.4867 -5.4251 0.2238 -1.3990 -3.0172 -0.3352 7.7768 -0.5522 9.8226 1.5513 6.1628 -0.6660 -9.2608 8.7967 0.4781 3.4573 -0.6758 -10.1505 -7.3671 -2.5672 8.4876 -63.6437 -32.4493 -28.3255 -0.0000 0.0001 86.3319 37.2265 54.9556 -8.3784 -0.0000 -0.0000 -0.0000 0.0000 -0.0000 0.0000 -1.8851 19.8186 4.3377 -2.3150 65.0017 4.9400 -0.0000 -0.0000 -12.9203 -6.3698 -18.8712 15.6471 0.0000 0.0000 0.0000 -0.0000 0.0000 -0.0000 2.9886 2.7099 -48.1794 -4.4322 0.0000 -0.0000 20.7335 -14.7217 44.4075 -29.8313 0.0000 -0.0000 4.2860 -3.4281 18.4187 -6.4656 0.0000 -0.0000 -1.0046 -4.8652 -19.0990 -4.5627 0.0000 -0.0000
 0.4575 -1.7693 23.6188 -0.2879 -0.9262 176.3192 -4.5242 -5.4669 0.2430 -1.4029 -3.0593 -0.3363 7.8032 -0.5368 9.9986 1.5775 6.2491 -0.6769 -9.2798 8.6599 0.2123 3.5818 -0.6224 -10.7455 -7.6161 -2.3926 8.6239 -62.4260 -32.9859 -27.2021 -0.0000 0.0001 87.1753 38.6178 55.9178 -8.2325 -0.0000 0.0000 -0.0000 -0.0000 0.0000 -0.0000 -1.9518 19.7798 4.3921 -2.5844 64.4238 5.3359 -0.0000 -0.0000 -13.2243 -6.2190 -18.9643 15.6713 -0.0000 -0.0000 0.0000 0.0000 -0.0000 0.0000 2.9368 2.6459 -48.0649 -4.4344 0.0000 -0.0000 20.7015 -14.7131 44.3533 -29.8081 0.0000 -0.0000 4.2499 -3.4941 18.4351 -6.4578 0.0000 -0.0000 -1.0104 -4.8688 -19.0422 -4.5525 0.0000 -0.0000
 0.4703 -1.7662 23.6188 -0.3262 -0.9553 176.2715 -4.5473 -5.4877 0.2653 -1.4041 -3.0957 -0.3368 7.8248 -0.5267 10.1572 1.5946 6.3171 -0.6837 -9.3024 8.4922 -0.0493 3.7034 -0.5583 -11.3151 -7.7609 -2.1976 8.7775 -60.3667 -33.3396 -25.5691 -0.0000 0.0001 87.9493 40.0137 56.7927 -7.6927 -0.0000 0.0000 0.0000 -0.0000 0.0000 0.0000 -2.0347 19.7903 4.4530 -2.2743 63.6997 5.2085 -0.0000 -0.0000 -13.5578 -6.0522 -19.0664 15.6708 0.0000 0.0000 -0.0000 0.0000 -0.0000 0.0000 2.9041 2.5854 -47.9496 -4.4295 0.0000 -0.0000 20.6559 -14.7124 44.2817 -29.7839 0.0000 -0.0000 4.2267 -3.5589 18.4525 -6.4470 0.0000 -0.0000 -1.0178 -4.8716 -19.0049 -4.5469 0.0000 -0.0000
 0.4831 -1.7625 23.6188 -0.3590 -0.9854 176.2494 -4.5723 -5.4965 0.2840 -1.4000 -3.1266 -0.3354 7.8444 -0.5176 10.2942 1.6055 6.3739 -0.6880 -9.3273 8.2850 -0.3052 3.8135 -0.4809 -11.8418 -7.8142 -1.9862 8.9429 -57.5203 -33.4400 -23.4742 -0.0000 0.0001 88.6614 41.4417 57.5401 -6.8232 -0.0000 -0.0000 -0.0000 -0.0000 -0.0000 0.0000 -2.1263 19.8496 4.5021 -1.4613 62.8550 4.6356 -0.0000 -0.0000 -13.9111 -5.8680 -19.1786 15.6357 0.0000 0.0000 0.0000 -0.0000 -0.0000 0.0000 2.8818 2.5239 -47.8468 -4.4214 0.0000 -0.0000 20.6010 -14.7160 44.1987 -29.7613 0.0000 -0.0000 4.2050 -3.6253 18.4730 -6.4328 0.0000 -0.0000 -1.0289 -4.8724 -18.9956 -4.5446 0.0000 -0.0000
 0.4955 -1.7580 23.6188 -0.3738 -1.0128 176.2607 -4.5893 -5.4946 0.2997 -1.3934 -3.1480 -0.3330 7.8679 -0.5101 10.3967 1.6098 6.4241 -0.6921 -9.3552 8.0344 -0.5479 3.9051 -0.3897 -12.3107 -7.7867 -1.7546 9.1135 -54.0092 -33.2351 -21.0082 -0.0000 0.0001 89.3231 42.9894 58.1194 -5.7879 -0.0000 -0.0000 0.0000 -0.0000 0.0000 0.0000 -2.2160 19.9549 4.5418 -0.1955 61.9123 3.6560 -0.0000 -0.0000 -14.2735 -5.6804 -19.3138 15.5734 0.0000 -0.0000 -0.0000 0.0000 0.0000 0.0000 2.8845 2.4667 -47.7641 -4.4113 0.0000 -0.0000 20.5369 -14.7266 44.1045 -29.7402 0.0000 -0.0000 4.1967 -3.6876 18.4919 -6.4170 0.0000 -0.0000 -1.0415 -4.8701 -19.0178 -4.5464 0.0000 -0.0000
 0.5072 -1.7530 23.6188 -0.3799 -1.0382 176.3092 -4.6127 -5.4865 0.3112 -1.3849 -3.1618 -0.3324 7.9006 -0.4984 10.4642 1.6089 6.4669 -0.6995 -9.3850 7.7436 -0.7726 3.9707 -0.2872 -12.7109 -7.6978 -1.4989 9.2818 -49.9891 -32.6888 -18.2924 -0.0000 0.0001 89.9456 44.7683 58.5239 -4.7948 0.0000 0.0000 -0.0000 0.0000 -0.0000 0.0000 -2.2923 20.1028 4.5676 1.4150 60.8898 2.3619 -0.0000 -0.0000 -14.6298 -5.4901 -19.4759 15.4798 -0.0000 0.0000 -0.0000 0.0000 0.0000 0.0000 2.9026 2.4120 -47.7071 -4.4002 0.0000 -0.0000 20.4653 -14.7432 44.0001 -29.7218 0.0000 -0.0000 4.1902 -3.7473 18.5061 -6.3981 0.0000 -0.0000 -1.0568 -4.8642 -19.0721 -4.5506 0.0000 -0.0000
 0.5185 -1.7474 23.6187 -0.3725 -1.0627 176.3957 -4.6396 -5.4774 0.3147 -1.3749 -3.1695 -0.3335 7.9484 -0.4789 10.4978 1.6001 6.5107 -0.7131 -9.4133 7.4110 -0.9741 4.0058 -0.1787 -13.0354 -7.5402 -1.2297 9.4499 -45.6499 -31.7737 -15.4451 -0.0000 0.0001 90.5306 46.9124 58.7917 -4.0929 -0.0000 -0.0000 -0.0000 0.0000 -0.0000 0.0000 -2.3564 20.2724 4.5734 3.2391 59.8141 0.8866 -0.0000 -0.0000 -14.9777 -5.3007 -19.6771 15.3625 0.0000 -0.0000 0.0000 -0.0000 0.0000 0.0000 2.9416 2.3582 -47.6821 -4.3907 0.0000 -0.0000 20.3888 -14.7641 43.8901 -29.7063 0.0000 -0.0000 4.1908 -3.8053 18.5131 -6.3773 0.0000 -0.0000 -1.0744 -4.8543 -19.1567 -4.5560 0.0000 -0.0000
 0.5291 -1.7412 23.6185 -0.3251 -1.0843 176.5196 -4.6316 -5.4732 0.3145 -1.3681 -3.1690 -0.3350 7.9966 -0.4446 10.4959 1.5895 6.5607 -0.7316 -9.4365 7.0340 -1.1538 4.0086 -0.0682 -13.2792 -7.3286 -0.9506 9.6203 -41.1685 -30.4969 -12.6036 -0.0000 0.0001 91.0696 49.4992 59.0022 -3.8352 -0.0000 0.0000 -0.0000 -0.0000 -0.0000 -0.0000 -2.3872 20.4399 4.5425 5.1304 58.7143 -0.6465 -0.0000 -0.0000 -15.3130 -5.1093 -19.9185 15.2318 0.0000 0.0000 0.0000 0.0000 -0.0000 0.0000 3.0295 2.3086 -47.6880 -4.3846 0.0000 -0.0000 20.3084 -14.7922 43.7749 -29.6959 0.0000 -0.0000 4.2281 -3.8573 18.5090 -6.3593 0.0000 -0.0000 -1.0905 -4.8395 -19.2668 -4.5630 0.0000 -0.0000
 0.5392 -1.7350 23.6183 -0.2620 -1.1026 176.6740 -4.6131 -5.4771 0.3070 -1.3639 -3.1675 -0.3382 8.0461 -0.3919 10.4703 1.5800 6.6296 -0.7559 -9.4552 6.6110 -1.3106 3.9792 0.0376 -13.4433 -7.0558 -0.6850 9.7967 -36.7132 -28.8714 -9.8611 -0.0000 0.0001 91.5372 52.5836 59.2525 -4.1073 0.0000 0.0000 -0.0000 0.0000 0.0000 0.0000 -2.4023 20.5808 4.4852 6.9958 57.6180 -2.1483 -0.0000 -0.0000 -15.6276 -4.9084 -20.1948 15.0933 -0.0000 -0.0000 -0.0000 0.0000 0.0000 0.0000 3.1380 2.2614 -47.7280 -4.3809 0.0000 -0.0000 20.2277 -14.8221 43.6627 -29.6899 0.0000 -0.0000 4.2739 -3.9061 18.4926 -6.3377 0.0000 -0.0000 -1.1081 -4.8218 -19.3949 -4.5701 0.0000 -0.0000
 0.5491 -1.7289 23.6180 -0.1903 -1.1158 176.8558 -4.5952 -5.4914 0.2927 -1.3608 -3.1661 -0.3429 8.1069 -0.3136 10.4313 1.5628 6.7157 -0.7889 -9.4646 6.1520 -1.4434 3.9192 0.1307 -13.5344 -6.7087 -0.4488 9.9825 -32.4399 -26.9265 -7.2939 -0.0000 0.0001 91.8991 56.1858 59.6270 -4.9001 -0.0000 -0.0000 0.0000 0.0000 -0.0000 0.0000 -2.3784 20.6887 4.3838 8.7185 56.5438 -3.5329 -0.0000 -0.0000 -15.9214 -4.7051 -20.4981 14.9597 -0.0000 0.0000 -0.0000 -0.0000 -0.0000 0.0000 3.2573 2.2193 -47.8006 -4.3747 0.0000 -0.0000 20.1450 -14.8536 43.5550 -29.6882 0.0000 -0.0000 4.3201 -3.9509 18.4632 -6.3112 0.0000 -0.0000 -1.1260 -4.8016 -19.5378 -4.5769 0.0000 -0.0000
